# xmcd
#
# Track frame offsets: 
#        150
#        17468
#        33419
#        47703
#        62185
#        75554
#        89302
#        106613
#        124789
#        142335
#        159946
#        175558
#        190067
#        206917
#        221347
#        237185
#        253136
#        269931
#        283645
#
# Disc length: 4004 seconds
#
# Revision: 2
# Processed by: cddbd v1.5.2PL0 Copyright (c) Steve Scherf et al.
# Submitted via: ExactAudioCopy v0.90b4
#
DISCID=0e0fa213
DTITLE=Various Artist - OLON Single Top 100 Volume 364
DYEAR=2007
DGENRE=Pop
TTITLE0=Sharon Kips - Heaven Knows
TTITLE1=Jim - Doe Dit, Doe Dat
TTITLE2=Hilbrand Nawijn - Hey, Jumpen
TTITLE3=Dr. Kucho! And Gregor Salto - Love Is My Game
TTITLE4=D-Code - Joy and Pain
TTITLE5=Xandee - Conga
TTITLE6=Tamara Tol - Zeg 't Met Bloemen
TTITLE7=Ali B and The Opposites - Je Weet Zelluf
TTITLE8=Sacha Visser - Ik Wil Met Je Mee
TTITLE9=Scrum - Drunk Again
TTITLE10=René Schuurmans - Laat De Zon In Je Hart
TTITLE11=Werring - How To Run The Show
TTITLE12=New Day - Returning
TTITLE13=René Diekman - Mansion Over The Hilltop
TTITLE14=Monique Smit - Wild
TTITLE15=Jeroen Van Der Boom - Jij Bent Zo
TTITLE16=Stars On 45 - Star Sisters Remix 2007
TTITLE17=Bukkes - Héé Keeltsie!
TTITLE18=Peter Dons - Gelukkig
EXTD=
EXTT0=
EXTT1=
EXTT2=
EXTT3=
EXTT4=
EXTT5=
EXTT6=
EXTT7=
EXTT8=
EXTT9=
EXTT10=
EXTT11=
EXTT12=
EXTT13=
EXTT14=
EXTT15=
EXTT16=
EXTT17=
EXTT18=
PLAYORDER=
